<svg width="32" height="32" viewBox="0 0 32 32" fill="none" xmlns="http://www.w3.org/2000/svg">
<path d="M26.3352 31H5.66856C5.11628 31 4.66856 30.5523 4.66856 30V11.3335L15.3465 2.06863C15.7225 1.74239 16.2812 1.74239 16.6573 2.06863L27.3352 11.3335V30C27.3352 30.5523 26.8875 31 26.3352 31Z" fill="#008374"/>
<path d="M16.6573 2.06863L16.0019 2.82395L16.0019 2.82395L16.6573 2.06863ZM15.3465 2.06863L14.6912 1.31331L14.6912 1.31331L15.3465 2.06863ZM29.8557 14.7647C30.278 15.1206 30.9089 15.0667 31.2647 14.6443C31.6206 14.222 31.5667 13.5911 31.1443 13.2353L29.8557 14.7647ZM0.856112 13.2349C0.433548 13.5905 0.379271 14.2213 0.73488 14.6439C1.09049 15.0665 1.72132 15.1207 2.14389 14.7651L0.856112 13.2349ZM5.66856 32H26.3352V30H5.66856V32ZM28.3352 30V11.3335H26.3352V30H28.3352ZM27.9906 10.5782L17.3126 1.31331L16.0019 2.82395L26.6799 12.0888L27.9906 10.5782ZM14.6912 1.31331L4.0132 10.5782L5.32392 12.0888L16.0019 2.82395L14.6912 1.31331ZM3.66856 11.3335V30H5.66856V11.3335H3.66856ZM26.6909 12.0982L29.8557 14.7647L31.1443 13.2353L27.9796 10.5688L26.6909 12.0982ZM4.02468 10.5684L0.856112 13.2349L2.14389 14.7651L5.31245 12.0986L4.02468 10.5684ZM17.3126 1.31331C16.5606 0.660823 15.4432 0.660827 14.6912 1.31331L16.0019 2.82395V2.82395L17.3126 1.31331ZM26.3352 32C27.4398 32 28.3352 31.1046 28.3352 30H26.3352V32ZM5.66856 30H3.66856C3.66856 31.1046 4.56399 32 5.66856 32V30Z" fill="#008374"/>
<circle cx="15.5" cy="17.5" r="4.5" stroke="#F0F0F1" stroke-width="2"/>
<path d="M19.7071 20.2929C19.3166 19.9024 18.6834 19.9024 18.2929 20.2929C17.9024 20.6834 17.9024 21.3166 18.2929 21.7071L19.7071 20.2929ZM21.2929 24.7071C21.6834 25.0976 22.3166 25.0976 22.7071 24.7071C23.0976 24.3166 23.0976 23.6834 22.7071 23.2929L21.2929 24.7071ZM18.2929 21.7071L21.2929 24.7071L22.7071 23.2929L19.7071 20.2929L18.2929 21.7071Z" fill="#F0F0F1"/>
</svg>
